<?xml version="1.0" encoding="utf-8"?>
<!-- Generator: Adobe Illustrator 16.0.0, SVG Export Plug-In . SVG Version: 6.00 Build 0)  -->
<!DOCTYPE svg PUBLIC "-//W3C//DTD SVG 1.1//EN" "http://www.w3.org/Graphics/SVG/1.1/DTD/svg11.dtd">
<svg version="1.1" id="Layer_1" xmlns="http://www.w3.org/2000/svg" xmlns:xlink="http://www.w3.org/1999/xlink" x="0px" y="0px"
	 width="72px" height="72px" viewBox="0 0 72 72" enable-background="new 0 0 72 72" xml:space="preserve">
<path fill="#FFCF0A" d="M23.225,25.349c-0.093,0-0.184,0.005-0.274,0.006c3.244-1.693,7.087-2.272,10.928-1.366
	c0.076,0.018,0.148,0.041,0.223,0.059c-1.325-0.776-2.786-1.372-4.36-1.745C21.258,20.3,12.754,25.552,10.75,34.037
	c-0.433,1.834-0.524,3.667-0.32,5.437c0.635,6.506,6.121,11.593,12.795,11.593c7.101,0,12.857-5.759,12.857-12.859
	C36.083,31.105,30.326,25.349,23.225,25.349z"/>
<path fill="#FFCF0A" d="M50.39,25.349c-0.092,0-0.183,0.005-0.274,0.006c3.244-1.693,7.089-2.272,10.929-1.366
	c0.076,0.018,0.148,0.041,0.223,0.059c-1.325-0.776-2.786-1.372-4.359-1.745c-8.484-2.003-16.988,3.249-18.993,11.733
	c-0.433,1.834-0.524,3.667-0.319,5.437c0.636,6.506,6.121,11.593,12.795,11.593c7.102,0,12.858-5.759,12.858-12.859
	C63.248,31.105,57.491,25.349,50.39,25.349z"/>
</svg>
