<?xml version="1.0" encoding="utf-8"?>
<!-- Generator: Adobe Illustrator 16.0.0, SVG Export Plug-In . SVG Version: 6.00 Build 0)  -->
<!DOCTYPE svg PUBLIC "-//W3C//DTD SVG 1.1//EN" "http://www.w3.org/Graphics/SVG/1.1/DTD/svg11.dtd">
<svg version="1.1" id="Layer_1" xmlns="http://www.w3.org/2000/svg" xmlns:xlink="http://www.w3.org/1999/xlink" x="0px" y="0px"
	 width="72px" height="72px" viewBox="0 0 72 72" enable-background="new 0 0 72 72" xml:space="preserve">
<g>
	<path fill-rule="evenodd" clip-rule="evenodd" fill="#575757" d="M49.256,61.201c0.479-0.006,0.938,0.43,0.955,0.904
		c0.017,0.477-0.414,0.947-0.89,0.971c-0.499,0.025-0.988-0.439-0.985-0.936C48.338,61.662,48.785,61.207,49.256,61.201z"/>
	<path fill-rule="evenodd" clip-rule="evenodd" fill="#575757" d="M54.069,61.914c0.03,0.473-0.389,0.951-0.865,0.99
		c-0.468,0.039-0.957-0.375-1.005-0.85c-0.05-0.496,0.393-1,0.895-1.021C53.57,61.012,54.039,61.434,54.069,61.914z"/>
	<path fill-rule="evenodd" clip-rule="evenodd" fill="#575757" d="M56.99,62.738c-0.479-0.006-0.932-0.455-0.934-0.928
		c-0.002-0.479,0.438-0.938,0.911-0.947c0.504-0.014,0.981,0.461,0.964,0.955C57.914,62.303,57.462,62.746,56.99,62.738z"/>
</g>
<path fill="#575757" d="M45.325,62.998c-0.003,0-0.005,0-0.008,0c-1.245,0,0.076,0,0.85,0c-0.005,0-0.01,0-0.015,0
	C45.95,62.998,45.681,62.998,45.325,62.998z"/>
<path fill-rule="evenodd" clip-rule="evenodd" fill="#575757" d="M42.015,25.33c-1.587,0-3.075-0.01-4.562,0.004
	c-0.556,0.004-1.012-0.139-1.184-0.713c-0.17-0.564,0.171-0.9,0.601-1.186c1.558-1.033,3.102-2.088,4.672-3.1
	c0.373-0.24,0.489-0.498,0.482-0.926c-0.025-1.508-0.016-3.016-0.009-4.525c0.013-2.891,2.096-4.98,4.986-4.986
	c4.405-0.008,8.81-0.01,13.214,0c2.855,0.008,4.948,2.1,4.957,4.955c0.012,3.76,0.011,7.521,0.001,11.283
	c-0.008,2.889-2.099,4.98-4.987,4.986c-4.345,0.008-8.689,0.004-13.033,0.002c-3.088-0.002-5.127-2.043-5.139-5.141
	C42.014,25.787,42.015,25.589,42.015,25.33z M40.521,23.289c0.011,0.043,0.022,0.088,0.033,0.131c0.758,0,1.516-0.01,2.272,0.002
	c0.71,0.012,1.079,0.379,1.096,1.078c0.014,0.584-0.001,1.166,0.003,1.75c0.013,1.713,1.256,2.961,2.977,2.963
	c4.465,0.006,8.93,0.006,13.394,0c1.718-0.002,2.967-1.252,2.969-2.971c0.007-3.82,0.007-7.643,0-11.463
	c-0.002-1.721-1.248-2.969-2.965-2.971c-4.465-0.006-8.93-0.006-13.395,0c-1.72,0-2.972,1.246-2.978,2.957
	c-0.007,1.791-0.021,3.58,0.009,5.369c0.011,0.641-0.227,1.057-0.757,1.389C42.278,22.087,41.405,22.697,40.521,23.289z"/>
<path fill-rule="evenodd" clip-rule="evenodd" fill="#575757" d="M38.15,52.352c0-3.055,0-1.277,0.001-4.332
	c0-0.182-0.02-0.365,0.012-0.543c0.089-0.516,0.399-0.85,0.93-0.857c0.531-0.008,0.85,0.32,0.952,0.834
	c0.035,0.174,0.016,0.359,0.016,0.541c0,6.15,0,7.469,0,13.619c0,0.041,0,0.08,0,0.121c-0.006,0.807-0.365,1.273-0.972,1.26
	c-0.587-0.014-0.935-0.467-0.938-1.234c-0.003-0.986-0.001-1.971-0.001-2.955C38.15,56.654,38.15,54.502,38.15,52.352z"/>
<path fill-rule="evenodd" clip-rule="evenodd" fill="#575757" d="M14.945,57.309c0.557-0.184,1.047-0.346,1.536-0.51
	c1.616-0.541,3.231-1.084,4.847-1.625c0.473-0.16,0.942-0.092,1.147,0.359c0.133,0.295,0.065,0.717-0.021,1.055
	c-0.04,0.158-0.316,0.301-0.514,0.369c-2.56,0.879-5.122,1.75-7.689,2.605c-0.597,0.199-1.179-0.24-1.212-0.887
	c-0.021-0.381-0.005-0.764-0.005-1.146c0-3.156,0-6.313,0-9.469c0-0.16-0.009-0.322,0.004-0.482
	c0.044-0.568,0.447-0.973,0.957-0.971c0.513,0.004,0.926,0.408,0.941,0.982c0.023,0.844,0.008,1.689,0.008,2.533
	c0,2.15,0,4.301,0,6.453C14.945,56.793,14.945,57.012,14.945,57.309z"/>
<path fill-rule="evenodd" clip-rule="evenodd" fill="#FFCF0A" d="M40.521,23.289c0.885-0.592,1.758-1.201,2.658-1.766
	c0.53-0.332,0.768-0.748,0.757-1.389c-0.03-1.789-0.016-3.578-0.009-5.369c0.006-1.711,1.258-2.957,2.978-2.957
	c4.465-0.006,8.93-0.006,13.395,0c1.717,0.002,2.963,1.25,2.965,2.971c0.007,3.82,0.007,7.643,0,11.463
	c-0.002,1.719-1.251,2.969-2.969,2.971c-4.464,0.006-8.929,0.006-13.394,0c-1.721-0.002-2.964-1.25-2.977-2.963
	c-0.004-0.584,0.011-1.166-0.003-1.75c-0.017-0.699-0.386-1.066-1.096-1.078c-0.757-0.012-1.515-0.002-2.272-0.002
	C40.543,23.376,40.531,23.332,40.521,23.289z"/>
<path fill="none" d="M28.468,46.746c-0.116,0.238-0.177,0.502-0.163,0.766c0.011,0.209,0.061,0.4,0.141,0.572v-1.119
	C28.445,46.891,28.454,46.818,28.468,46.746z"/>
<path fill="none" d="M28.488,41.77h-0.002c0-0.381,0.021-0.762-0.004-1.143c-0.066-1.02-0.943-1.793-1.987-1.773
	c-1.004,0.02-1.848,0.816-1.883,1.816c-0.026,0.721-0.024,1.445-0.001,2.166c0.032,1.027,0.894,1.83,1.928,1.834
	c1.038,0.004,1.895-0.791,1.946-1.816C28.503,42.492,28.488,42.131,28.488,41.77z"/>
<path fill="#575757" d="M46.676,61.107c-0.196-0.031-0.562-0.02-0.819-0.02v-0.73c0-6.902,0.002-8.971,0-15.871
	c-0.002-4.156-2.16-7.238-6.062-8.641c-2.493-0.896-4.992-1.773-7.488-2.66c-0.771-0.273-0.937-0.514-0.939-1.332
	c-0.002-0.463-0.039-0.93,0.014-1.387c0.034-0.293,0.137-0.625,0.321-0.846c0.833-1.004,1.443-2.119,1.855-3.354
	c0.7-2.098,0.721-4.266,0.71-6.441c-0.021-4.207-2.688-7.305-6.851-7.93c-3.909-0.586-8.041,2.492-8.44,6.436
	c-0.179,1.768-0.137,3.58,0.012,5.354c0.188,2.262,0.968,4.344,2.518,6.076c0.13,0.145,0.209,0.387,0.213,0.584
	c0.034,1.514-0.98,2.885-2.55,3.445c-1.946,0.695-3.896,1.381-5.849,2.057c-3.791,1.313-6.074,4.493-6.079,8.512
	c-0.007,5.252-0.007,10.502,0,15.754c0.006,4.066,3.743,6.715,7.59,5.375c1.706-0.592,3.396-1.229,5.096-1.842
	c2.394-0.865,4.734-1.842,7.397-1.643c1.989,0.15,3.571-1.197,3.939-3.025c0.385-1.914-0.546-3.602-2.42-4.41
	c-0.143-0.061-0.348-0.205-0.354-0.318c-0.016-0.275-0.021-0.551-0.021-0.828c-0.015-0.072,0.026-1.072,0.026-1.148
	c0,0,0.909-7.418,1.401-7.641c0.719-1.318,0.532-2.705,0.479-4.057c-0.075-1.969-1.667-3.508-3.615-3.625
	c-1.911-0.117-3.663,1.208-3.958,3.151c-0.228,1.494-0.305,3.021,0.346,4.494c0.336,0.182,1.45,7.781,1.479,7.781
	c0,0.471,0.003,0.869,0,1.268c-0.025,2.734-0.16,2.627,2.564,2.596c0.141,0,0.282-0.004,0.423,0.004
	c1.011,0.045,1.817,0.867,1.842,1.873c0.028,1.143-0.825,2.057-2.011,1.996c-2.294-0.117-4.455,0.322-6.582,1.176
	c-2.177,0.875-4.409,1.611-6.621,2.4c-2.639,0.941-5.091-0.789-5.093-3.59c-0.001-5.23-0.001-10.463,0-15.693
	c0-3.273,1.718-5.695,4.798-6.771c1.855-0.649,3.713-1.297,5.568-1.95c2.769-0.971,4.18-2.975,4.105-5.898
	c-0.009-0.344-0.178-0.764-0.417-1.004c-0.978-0.984-1.595-2.15-1.986-3.463c-0.573-1.926-0.489-3.9-0.473-5.869
	c0.024-2.945,2.37-5.473,5.266-5.701c3.019-0.238,5.766,1.764,6.21,4.701c0.318,2.109,0.291,4.258-0.231,6.35
	c-0.731,2.93-2.233,5.111-5.561,5.4c-0.492,0.043-0.865,0.506-0.826,0.961c0.046,0.529,0.357,0.848,0.881,0.914
	c0.234,0.029,0.487,0.01,0.718-0.045c0.737-0.174,1.468-0.373,2.256-0.578c0,0.152-0.002,0.291,0,0.432
	c0.02,1.59,0.711,2.555,2.205,3.086c2.497,0.885,4.993,1.77,7.488,2.659c3.113,1.109,4.795,3.48,4.796,6.766
	c0.001,7.344,0,9.855,0.001,17.199c0,1.111,0.285,1.402,1.37,1.404c0.199,0,0.464,0,0.807,0c0.01,0,0.019,0,0.028,0
	c0.169,0,0.29,0,0.368,0c0.05-0.002,0.098-0.008,0.146-0.018c0.489-0.096,0.784-0.4,0.828-0.902
	C47.534,61.623,47.163,61.189,46.676,61.107z M26.539,44.67c-1.034-0.004-1.896-0.807-1.928-1.834
	c-0.023-0.721-0.025-1.445,0.001-2.166c0.035-1,0.879-1.797,1.883-1.816c1.044-0.02,1.921,0.754,1.987,1.773
	c0.024,0.381,0.004,0.762,0.004,1.143h0.002c0,0.361,0.015,0.723-0.003,1.084C28.434,43.879,27.577,44.674,26.539,44.67z"/>
</svg>
