<?xml version="1.0" encoding="utf-8"?>
<!-- Generator: Adobe Illustrator 16.0.0, SVG Export Plug-In . SVG Version: 6.00 Build 0)  -->
<!DOCTYPE svg PUBLIC "-//W3C//DTD SVG 1.1//EN" "http://www.w3.org/Graphics/SVG/1.1/DTD/svg11.dtd">
<svg version="1.1" id="Layer_1" xmlns="http://www.w3.org/2000/svg" xmlns:xlink="http://www.w3.org/1999/xlink" x="0px" y="0px"
	 width="72px" height="72px" viewBox="0 0 72 72" enable-background="new 0 0 72 72" xml:space="preserve">
<path fill-rule="evenodd" clip-rule="evenodd" fill="#FFCF0A" d="M56.932,17.116H28.112c-0.996,0-1.803,0.662-1.803,1.479v5.576
	c0.111,0.01,0.218,0.03,0.323,0.058c4.558,0.016,9.116,0.046,13.674,0.047c0.17-0.07,0.355-0.112,0.551-0.112
	c0.86,0,1.613,0.556,1.66,1.382c0.043,0.76-0.629,1.527-1.486,1.533c-0.17,0.07-0.355,0.111-0.552,0.111
	c-4.723,0-9.447-0.032-14.17-0.047v17.534c0,0.816,0.807,1.479,1.803,1.479h28.819c0.996,0,1.803-0.662,1.803-1.479V18.594
	C58.734,17.778,57.928,17.116,56.932,17.116z"/>
<path fill-rule="evenodd" clip-rule="evenodd" fill="#575757" d="M24.082,28.594c0,0.344,0,0.603,0,0.861
	c0,12.093,0,24.187,0,36.281c0,1-0.292,1.467-0.926,1.49c-0.659,0.025-0.984-0.467-0.984-1.492c0-12.516,0-25.031,0-37.548
	c0-1.256,0.25-1.502,1.524-1.502c5.453,0,10.906,0,16.359,0c0.181,0,0.364,0.013,0.543-0.007c0.521-0.056,0.889-0.462,0.891-0.968
	c0.002-0.508-0.362-0.916-0.884-0.971c-0.199-0.021-0.402-0.008-0.604-0.008c-8.995-0.001-17.99,0.017-26.984-0.019
	c-1.466-0.006-2.503,0.602-3.313,1.727c-0.71,0.987-1.088,2.084-1.084,3.32c0.014,4.326,0.005,8.653,0.006,12.979
	c0,0.182-0.022,0.369,0.019,0.541c0.115,0.484,0.429,0.773,0.935,0.785c0.508,0.014,0.839-0.256,0.958-0.744
	c0.052-0.211,0.039-0.439,0.039-0.66c0.002-3.563,0.001-7.124,0.002-10.686c0-0.181-0.017-0.365,0.012-0.542
	c0.083-0.521,0.394-0.834,0.924-0.873c0.48-0.035,0.902,0.368,0.964,0.894c0.021,0.179,0.009,0.362,0.009,0.543
	c0,2.576-0.075,5.155,0.021,7.727c0.103,2.736-0.336,5.398-0.794,8.072c-0.765,4.475-1.497,8.953-2.243,13.43
	c-0.281,1.684-0.561,3.367-0.844,5.049c-0.108,0.645-0.574,1.039-1.103,0.943c-0.577-0.104-0.874-0.619-0.762-1.287
	c1.101-6.576,2.199-13.15,3.296-19.727c0.009-0.055-0.008-0.113-0.016-0.201c-0.263-0.014-0.522-0.008-0.776-0.045
	c-1.493-0.215-2.543-1.387-2.547-2.9c-0.013-4.506-0.078-9.016,0.022-13.521c0.062-2.755,1.32-4.951,3.846-6.238
	c0.585-0.299,1.308-0.455,1.968-0.457c9.276-0.029,18.553-0.022,27.83-0.018c1.701,0.001,3.009,1.27,3.012,2.882
	c0.002,1.609-1.308,2.884-3.007,2.887c-5.171,0.008-10.342,0.003-15.514,0.003C24.641,28.594,24.402,28.594,24.082,28.594z"/>
<path fill-rule="evenodd" clip-rule="evenodd" fill="#575757" d="M62.722,31.385c0,6.318,0,8.988-0.001,15.306
	c0,0.965-0.338,1.457-0.983,1.432c-0.624-0.021-0.926-0.488-0.926-1.43c-0.001-12.574,0-21.501-0.001-34.077
	c0-1.147-0.265-1.41-1.421-1.41c-11.589,0-23.178,0-34.768,0c-0.993,0-1.465-0.301-1.478-0.938c-0.013-0.66,0.47-0.973,1.504-0.973
	c11.589,0,23.178,0,34.768,0.001c2.168,0,3.305,1.141,3.305,3.316C62.722,18.871,62.721,25.128,62.722,31.385z"/>
<path fill-rule="evenodd" clip-rule="evenodd" fill="#575757" d="M16.757,50.006c-0.778,2.986-1.556,5.973-2.335,8.959
	c-0.643,2.465-1.269,4.936-1.954,7.389c-0.091,0.328-0.441,0.67-0.758,0.816c-0.205,0.094-0.696-0.07-0.831-0.271
	c-0.182-0.271-0.267-0.723-0.185-1.041c1.656-6.451,3.341-12.896,5.021-19.342c0.223-0.854,0.441-1.709,0.665-2.563
	c0.137-0.527,0.459-0.855,1.025-0.836c0.508,0.02,0.833,0.434,0.886,1.045c0.475,5.426,0.952,10.852,1.428,16.277
	c0.163,1.861,0.327,3.723,0.484,5.586c0.057,0.674-0.324,1.176-0.895,1.203c-0.541,0.027-0.948-0.406-1.005-1.055
	C17.87,61.229,17.434,56.283,17,51.34c-0.039-0.438-0.068-0.873-0.102-1.311C16.851,50.021,16.804,50.014,16.757,50.006z"/>
<path fill-rule="evenodd" clip-rule="evenodd" fill="#575757" d="M45.354,51.994c-5.953,0-11.905,0-17.857,0
	c-0.181,0-0.363,0.01-0.542-0.01c-0.531-0.059-0.915-0.467-0.911-0.951c0.003-0.488,0.387-0.885,0.922-0.941
	c0.159-0.018,0.321-0.008,0.482-0.008c11.925,0,21.766,0,33.69,0c0.94,0,1.405,0.305,1.425,0.93c0.02,0.646-0.468,0.98-1.436,0.98
	C55.174,51.994,51.307,51.994,45.354,51.994z"/>
<path fill-rule="evenodd" clip-rule="evenodd" fill="#575757" d="M10.582,15.059c0.012-3.148,2.626-5.757,5.774-5.761
	c3.177-0.004,5.804,2.629,5.792,5.804c-0.013,3.174-2.664,5.793-5.834,5.763C13.165,20.834,10.57,18.206,10.582,15.059z
	 M16.393,18.957c2.134-0.008,3.851-1.744,3.847-3.889c-0.004-2.14-1.729-3.86-3.873-3.861c-2.168,0-3.888,1.737-3.876,3.918
	C12.502,17.253,14.244,18.964,16.393,18.957z"/>
<path fill-rule="evenodd" clip-rule="evenodd" fill="#575757" d="M34.019,43.465c-1.788,0-3.575,0.002-5.362,0
	c-0.181,0-0.367,0.018-0.541-0.016c-0.513-0.104-0.842-0.42-0.835-0.949c0.006-0.531,0.341-0.834,0.856-0.934
	c0.078-0.016,0.161-0.01,0.241-0.01c3.756,0,7.512,0,11.268-0.002c0.516,0,0.962,0.186,1.045,0.705
	c0.047,0.301-0.094,0.725-0.303,0.947c-0.183,0.191-0.581,0.244-0.885,0.248C37.674,43.477,35.847,43.465,34.019,43.465z"/>
<path fill-rule="evenodd" clip-rule="evenodd" fill="#575757" d="M34.019,39.73c-1.788,0-3.575,0.002-5.362,0
	c-0.181,0-0.367,0.02-0.541-0.016c-0.513-0.102-0.842-0.42-0.835-0.949c0.006-0.531,0.341-0.834,0.856-0.934
	c0.078-0.016,0.161-0.01,0.241-0.01c3.756,0,7.512,0,11.268-0.002c0.516,0,0.962,0.186,1.045,0.705
	c0.047,0.301-0.094,0.725-0.303,0.947c-0.183,0.191-0.581,0.244-0.885,0.248C37.674,39.742,35.847,39.73,34.019,39.73z"/>
<path fill-rule="evenodd" clip-rule="evenodd" fill="#575757" d="M34.019,35.997c-1.788,0.001-3.575,0.001-5.362,0
	c-0.181,0-0.367,0.019-0.541-0.017c-0.513-0.102-0.842-0.419-0.835-0.949s0.341-0.834,0.856-0.933
	c0.078-0.016,0.161-0.01,0.241-0.01c3.756-0.001,7.512,0,11.268-0.002c0.516-0.001,0.962,0.185,1.045,0.705
	c0.047,0.301-0.094,0.724-0.303,0.946c-0.183,0.192-0.581,0.245-0.885,0.249C37.674,36.007,35.847,35.997,34.019,35.997z"/>
<path fill-rule="evenodd" clip-rule="evenodd" fill="#575757" d="M34.019,32.263c-1.788,0-3.575,0-5.362-0.001
	c-0.181,0-0.367,0.019-0.541-0.017c-0.513-0.102-0.842-0.418-0.835-0.949c0.006-0.529,0.341-0.833,0.856-0.933
	c0.078-0.016,0.161-0.01,0.241-0.01c3.756-0.001,7.512,0.001,11.268-0.002c0.516,0,0.962,0.185,1.045,0.705
	c0.047,0.302-0.094,0.724-0.303,0.946c-0.183,0.193-0.581,0.245-0.885,0.249C37.674,32.273,35.847,32.263,34.019,32.263z"/>
<path fill-rule="evenodd" clip-rule="evenodd" fill="#575757" d="M50.747,35.997c-1.788,0.001-3.575,0.001-5.363,0
	c-0.181,0-0.366,0.019-0.54-0.017c-0.514-0.102-0.842-0.419-0.836-0.949s0.342-0.834,0.856-0.933c0.077-0.016,0.16-0.01,0.24-0.01
	c3.756-0.001,7.512,0,11.268-0.002c0.517-0.001,0.962,0.185,1.044,0.705c0.048,0.301-0.093,0.724-0.302,0.946
	c-0.183,0.192-0.581,0.245-0.885,0.249C54.402,36.007,52.574,35.997,50.747,35.997z"/>
<path fill-rule="evenodd" clip-rule="evenodd" fill="#575757" d="M50.747,32.263c-1.788,0-3.575,0-5.363-0.001
	c-0.181,0-0.366,0.019-0.54-0.017c-0.514-0.102-0.842-0.418-0.836-0.949c0.006-0.529,0.342-0.833,0.856-0.933
	c0.077-0.016,0.16-0.01,0.24-0.01c3.756-0.001,7.512,0.001,11.268-0.002c0.517,0,0.962,0.185,1.044,0.705
	c0.048,0.302-0.093,0.724-0.302,0.946c-0.183,0.193-0.581,0.245-0.885,0.249C54.402,32.273,52.574,32.263,50.747,32.263z"/>
<path fill-rule="evenodd" clip-rule="evenodd" fill="#575757" d="M50.747,28.309c-1.788,0-3.575,0-5.363-0.001
	c-0.181,0-0.366,0.019-0.54-0.016c-0.514-0.103-0.842-0.419-0.836-0.949s0.342-0.834,0.856-0.934c0.077-0.015,0.16-0.01,0.24-0.01
	c3.756,0,7.512,0.001,11.268-0.002c0.517,0,0.962,0.186,1.044,0.705c0.048,0.302-0.093,0.724-0.302,0.946
	c-0.183,0.193-0.581,0.245-0.885,0.249C54.402,28.32,52.574,28.309,50.747,28.309z"/>
<path fill-rule="evenodd" clip-rule="evenodd" fill="#575757" d="M50.747,24.575c-1.788,0-3.575,0-5.363,0
	c-0.181,0-0.366,0.018-0.54-0.017c-0.514-0.103-0.842-0.419-0.836-0.949s0.342-0.834,0.856-0.934c0.077-0.015,0.16-0.01,0.24-0.01
	c3.756-0.001,7.512,0.001,11.268-0.002c0.517,0,0.962,0.186,1.044,0.706c0.048,0.301-0.093,0.724-0.302,0.945
	c-0.183,0.193-0.581,0.245-0.885,0.249C54.402,24.585,52.574,24.575,50.747,24.575z"/>
<path fill-rule="evenodd" clip-rule="evenodd" fill="#575757" d="M50.747,20.84c-1.788,0-3.575,0.001-5.363,0
	c-0.181,0-0.366,0.018-0.54-0.017c-0.514-0.103-0.842-0.419-0.836-0.949s0.342-0.834,0.856-0.934c0.077-0.015,0.16-0.01,0.24-0.01
	c3.756,0,7.512,0.001,11.268-0.002c0.517,0,0.962,0.186,1.044,0.706c0.048,0.301-0.093,0.724-0.302,0.946
	c-0.183,0.192-0.581,0.245-0.885,0.248C54.402,20.851,52.574,20.84,50.747,20.84z"/>
<path fill-rule="evenodd" clip-rule="evenodd" fill="#575757" d="M34.363,20.84c-1.788,0-3.575,0.001-5.363,0
	c-0.181,0-0.366,0.018-0.541-0.017c-0.513-0.103-0.842-0.419-0.836-0.949s0.341-0.834,0.856-0.934c0.078-0.015,0.16-0.01,0.24-0.01
	c3.756,0,7.512,0.001,11.268-0.002c0.516,0,0.963,0.186,1.045,0.706c0.047,0.301-0.094,0.724-0.303,0.946
	c-0.182,0.192-0.58,0.245-0.885,0.248C38.019,20.851,36.19,20.84,34.363,20.84z"/>
<path fill-rule="evenodd" clip-rule="evenodd" fill="#575757" d="M48.23,13.167c0.504-0.007,0.964,0.447,0.961,0.952
	c-0.003,0.504-0.467,0.957-0.968,0.946c-0.481-0.011-0.914-0.44-0.93-0.924C47.277,13.638,47.724,13.174,48.23,13.167z"/>
<path fill-rule="evenodd" clip-rule="evenodd" fill="#575757" d="M53.055,14.1c0.011,0.502-0.444,0.965-0.948,0.965
	s-0.958-0.461-0.949-0.964c0.008-0.482,0.436-0.917,0.918-0.935C52.576,13.148,53.045,13.594,53.055,14.1z"/>
<path fill-rule="evenodd" clip-rule="evenodd" fill="#575757" d="M55.995,15.065c-0.502,0.016-0.967-0.433-0.974-0.939
	c-0.007-0.48,0.407-0.925,0.893-0.958c0.497-0.034,0.979,0.401,1.005,0.907C56.944,14.572,56.5,15.048,55.995,15.065z"/>
</svg>
