<?xml version="1.0" encoding="utf-8"?>
<!-- Generator: Adobe Illustrator 16.0.0, SVG Export Plug-In . SVG Version: 6.00 Build 0)  -->
<!DOCTYPE svg PUBLIC "-//W3C//DTD SVG 1.1//EN" "http://www.w3.org/Graphics/SVG/1.1/DTD/svg11.dtd">
<svg version="1.1" id="Layer_1" xmlns="http://www.w3.org/2000/svg" xmlns:xlink="http://www.w3.org/1999/xlink" x="0px" y="0px"
	 width="72px" height="72px" viewBox="0 0 72 72" enable-background="new 0 0 72 72" xml:space="preserve">
<path fill="#F7F5F5" d="M57.457,52.186c0,7.33-5.942,13.272-13.272,13.272H28.183c-7.33,0-13.273-5.942-13.273-13.272V36.184
	c0-7.331,5.943-13.273,13.273-13.273h16.002c7.33,0,13.272,5.942,13.272,13.273V52.186z"/>
<g>
	<g>
		<path fill-rule="evenodd" clip-rule="evenodd" fill="#575757" d="M61.443,12.94c0.492-0.006,0.963,0.441,0.979,0.93
			s-0.426,0.971-0.913,0.994c-0.513,0.026-1.014-0.451-1.012-0.96C60.5,13.413,60.958,12.945,61.443,12.94z"/>
		<path fill-rule="evenodd" clip-rule="evenodd" fill="#575757" d="M66.384,13.672c0.031,0.484-0.399,0.978-0.889,1.018
			c-0.48,0.04-0.982-0.386-1.032-0.873c-0.05-0.509,0.403-1.026,0.919-1.05C65.871,12.745,66.353,13.181,66.384,13.672z"/>
		<path fill-rule="evenodd" clip-rule="evenodd" fill="#575757" d="M69.382,14.519c-0.492-0.006-0.956-0.467-0.958-0.952
			c-0.004-0.491,0.448-0.962,0.935-0.974c0.518-0.012,1.008,0.473,0.989,0.981C70.329,14.07,69.865,14.526,69.382,14.519z"/>
	</g>
	<path fill-rule="evenodd" clip-rule="evenodd" fill="#575757" d="M62.885,29.743c-0.006-1.737-1.143-3.259-2.788-3.764
		c-0.29-0.089-0.592-0.146-0.893-0.219c-1.22-6.33-2.434-12.635-3.65-18.952c-0.973,0.158-1.903,0.31-2.832,0.462
		c-4.168,0.686-8.335,1.373-12.501,2.057c-3.843,0.629-7.688,1.248-11.528,1.883c-0.764,0.125-1.075,0.621-0.938,1.381
		c0.182,1.004,0.351,2.012,0.533,3.059c-0.459,0.087-0.859,0.17-1.264,0.236c-5.487,0.904-10.976,1.813-16.466,2.699
		c-0.552,0.09-1.029,0.223-1.175,0.816c-0.148,0.61,0.256,0.941,0.704,1.246c2.18,1.49,4.354,2.989,6.528,4.486
		c0.877,0.604,1.751,1.213,2.636,1.826c-0.153,0.217-0.271,0.386-0.393,0.552c-2.062,2.813-4.123,5.626-6.187,8.436
		c-0.286,0.39-0.472,0.79-0.187,1.253c0.271,0.441,0.689,0.567,1.178,0.485c1.343-0.221,2.682-0.452,4.022-0.673
		c3.64-0.599,7.278-1.192,10.918-1.79c2.784-0.458,5.57-0.913,8.354-1.38c0.77-0.13,1.063-0.59,0.929-1.379
		c-0.175-1.008-0.348-2.016-0.53-3.077c6.604-1.092,13.155-2.175,19.708-3.258c-1.703,1.083-2.188,2.648-2.119,4.536
		c0.065,1.815,0.031,3.636,0.007,5.453c-0.04,3.182-1.637,5.263-4.729,6.033c-1.15,0.288-2.357,0.354-3.539,0.511
		c-1.61,0.216-3.265,0.259-4.824,0.663c-3.985,1.032-7.464,2.784-8.711,7.211c-0.152-0.064-0.303-0.128-0.454-0.19
		c-3.35-1.354-6.414-0.912-9.145,1.491c-0.289,0.256-0.507,0.229-0.825,0.137c-2.959-0.853-5.634-0.303-7.96,1.725
		c-0.369,0.322-0.645,0.368-1.084,0.231c-3.676-1.136-7.484,0.339-9.33,3.604c-0.63,1.111-0.972,2.307-0.954,3.6
		c0.017,1.104,0.004,2.211,0.004,3.31H5.38c0-1.062-0.003-2.089,0-3.117c0.004-2.651,1.692-4.886,4.243-5.575
		c1.146-0.311,2.296-0.299,3.384,0.065c-0.206,0.717-0.513,1.357-0.556,2.017c-0.107,1.624-0.096,3.256-0.126,4.886
		c-0.01,0.57-0.002,1.142-0.002,1.712h1.979c0-1.718,0-3.39,0-5.063c0.001-2.559,1.307-4.478,3.699-5.377
		c1.301-0.489,2.629-0.601,4.021-0.132c-0.696,1.304-0.809,2.663-0.783,4.063c0.034,1.962,0.008,3.924,0.008,5.888v0.65h1.979V63.73
		c0-2.231-0.006-4.463,0.002-6.693c0.005-1.196,0.381-2.269,1.141-3.198c2.046-2.497,5.693-2.987,8.368-1.145
		c0.309,0.213,0.419,0.438,0.417,0.809c-0.016,2.665-0.014,5.329-0.006,7.994c0.005,1.78,1.198,3.347,2.886,3.814
		c1.718,0.478,3.478-0.239,4.46-1.744c0.402-0.616,0.867-1.22,1.41-1.711c2.322-2.099,5.193-2.861,8.208-3.197
		c1.941-0.217,3.922-0.096,5.814-0.726c0.831-0.277,1.011-0.476,1.012-1.372c0-2.459,0.009-4.917-0.009-7.374
		c-0.004-0.449,0.135-0.715,0.486-1.024c1.127-0.994,2.269-1.991,3.245-3.127c1.294-1.508,2.197-3.262,2.217-5.316
		C62.911,36.395,62.894,33.068,62.885,29.743z M15.662,35.33c0.12-0.2,0.185-0.331,0.269-0.447c1.793-2.445,3.589-4.888,5.381-7.332
		c0.563-0.769,0.484-1.282-0.291-1.813c-2.448-1.678-4.901-3.351-7.352-5.027c-0.197-0.135-0.39-0.276-0.711-0.506
		c5.302-0.873,10.452-1.721,15.677-2.582c0.225,1.244,0.449,2.469,0.665,3.694c0.467,2.655,0.924,5.313,1.396,7.968
		c0.148,0.844,0.541,1.13,1.388,1.008c1.077-0.156,2.149-0.342,3.303-0.527c0.134,0.74,0.262,1.455,0.404,2.253
		C29.078,33.122,22.423,34.217,15.662,35.33z M32.53,28.17c-0.891-5.026-1.775-10.027-2.678-15.13
		c8.037-1.324,16.031-2.643,24.115-3.977c0.898,5.065,1.786,10.065,2.686,15.134C48.6,25.523,40.601,26.841,32.53,28.17z
		 M60.925,37.397c0.49,4.104-1.572,6.918-4.667,9.135c-1,0.716-1.375,1.445-1.325,2.649c0.095,2.287,0.026,4.58,0.026,6.988
		c-1.036,0.126-2.051,0.357-3.064,0.353c-3.87-0.02-7.405,0.997-10.593,3.202c-0.045,0.032-0.106,0.037-0.216,0.072v-8.162h-1.99
		v0.671c0,3.057,0.005,6.113-0.005,9.171c-0.002,0.919-0.539,1.632-1.391,1.91c-0.787,0.256-1.669,0.021-2.14-0.688
		c-0.237-0.356-0.412-0.831-0.417-1.255c-0.033-3.325-0.05-6.651-0.005-9.976c0.024-1.806,1.094-3.068,2.464-4.087
		c1.952-1.451,4.211-2.148,6.582-2.474c1.977-0.271,3.994-0.299,5.951-0.666c2.647-0.497,4.8-1.839,5.985-4.398
		c0.554-1.197,0.796-2.472,0.81-3.782c0.021-2.044,0.011-4.089,0.006-6.134c-0.002-0.468,0.096-0.886,0.375-1.267
		c0.304-0.507,0.834-0.876,1.448-0.876c0.326,0,0.639,0.077,0.912,0.214c-0.003-0.02-0.007-0.038-0.01-0.059
		c0.799,0.367,1.21,0.942,1.232,1.715C60.931,30.952,60.837,36.658,60.925,37.397z"/>
	<path fill-rule="evenodd" clip-rule="evenodd" fill="#575757" d="M52.971,34.697c0.01,3.276-2.642,5.967-5.895,5.981
		c-3.301,0.016-5.995-2.655-5.998-5.941c-0.001-3.266,2.669-5.946,5.927-5.951C50.277,28.781,52.962,31.442,52.971,34.697z
		 M47.007,30.765c-2.187,0.01-3.96,1.806-3.949,4.001c0.01,2.176,1.824,3.953,4.016,3.936c2.149-0.02,3.921-1.814,3.92-3.971
		C50.992,32.542,49.195,30.756,47.007,30.765z"/>
	<path fill-rule="evenodd" clip-rule="evenodd" fill="#575757" d="M16.291,46.607c0.005-2.182,1.806-3.954,4-3.94
		c2.158,0.014,3.924,1.792,3.926,3.956c0.004,2.19-1.779,3.974-3.971,3.972C18.061,50.593,16.285,48.804,16.291,46.607z
		 M22.238,46.65c0.01-1.066-0.872-1.979-1.935-2.003c-1.102-0.025-2.022,0.863-2.034,1.963c-0.01,1.066,0.869,1.979,1.934,2.005
		C21.296,48.642,22.228,47.742,22.238,46.65z"/>
	<path fill-rule="evenodd" clip-rule="evenodd" fill="#575757" d="M29.184,40.685c2.188,0.001,3.965,1.79,3.958,3.984
		c-0.008,2.183-1.804,3.953-4.001,3.942c-2.153-0.012-3.925-1.795-3.927-3.954C25.211,42.464,26.991,40.684,29.184,40.685z
		 M29.149,46.633c1.069,0.014,1.982-0.858,2.013-1.926c0.031-1.092-0.864-2.026-1.957-2.044c-1.073-0.016-1.983,0.854-2.011,1.924
		C27.164,45.682,28.06,46.617,29.149,46.633z"/>
	<path fill-rule="evenodd" clip-rule="evenodd" fill="#575757" d="M11.353,44.65c2.185,0.007,3.953,1.802,3.94,4.001
		c-0.012,2.18-1.817,3.944-4.017,3.926c-2.15-0.019-3.911-1.806-3.91-3.97C7.369,46.42,9.158,44.644,11.353,44.65z M11.326,46.63
		c-1.099,0.003-1.997,0.918-1.98,2.018c0.016,1.064,0.922,1.954,1.987,1.95c1.094-0.002,1.999-0.925,1.982-2.019
		C13.298,47.516,12.391,46.626,11.326,46.63z"/>
	<path fill-rule="evenodd" clip-rule="evenodd" fill="#FFCF0A" d="M53.968,9.063c0.898,5.065,1.786,10.065,2.686,15.134
		C48.6,25.523,40.601,26.841,32.53,28.17c-0.891-5.026-1.775-10.027-2.678-15.13C37.89,11.716,45.884,10.397,53.968,9.063z"/>
	<path fill-rule="evenodd" clip-rule="evenodd" fill="#FFCF0A" d="M12.958,20.204c5.302-0.873,10.452-1.721,15.677-2.582
		c0.225,1.244,0.449,2.469,0.665,3.694c0.467,2.655,0.924,5.313,1.396,7.968c0.148,0.844,0.541,1.13,1.388,1.008
		c1.077-0.156,2.149-0.342,3.303-0.527c0.134,0.74,0.262,1.455,0.404,2.253c-6.712,1.104-13.367,2.199-20.128,3.313
		c0.12-0.2,0.185-0.331,0.269-0.447c1.793-2.445,3.589-4.888,5.381-7.332c0.563-0.769,0.484-1.282-0.291-1.813
		c-2.448-1.678-4.901-3.351-7.352-5.027C13.472,20.575,13.279,20.434,12.958,20.204z"/>
</g>
</svg>
