<?xml version="1.0" encoding="utf-8"?>
<!-- Generator: Adobe Illustrator 16.0.0, SVG Export Plug-In . SVG Version: 6.00 Build 0)  -->
<!DOCTYPE svg PUBLIC "-//W3C//DTD SVG 1.1//EN" "http://www.w3.org/Graphics/SVG/1.1/DTD/svg11.dtd">
<svg version="1.1" id="Layer_1" xmlns="http://www.w3.org/2000/svg" xmlns:xlink="http://www.w3.org/1999/xlink" x="0px" y="0px"
	 width="72px" height="72px" viewBox="0 0 72 72" enable-background="new 0 0 72 72" xml:space="preserve">
<path fill="#F7F5F5" d="M56.614,54.832c0,7.33-5.943,13.272-13.273,13.272H27.339c-7.33,0-13.272-5.942-13.272-13.272V38.83
	c0-7.331,5.942-13.273,13.272-13.273h16.002c7.33,0,13.273,5.942,13.273,13.273V54.832z"/>
<g>
	<g>
		<path fill-rule="evenodd" clip-rule="evenodd" fill="#575757" d="M41.803,11.586c0.236-0.432,0.857-0.623,1.29-0.398
			c0.436,0.226,0.638,0.848,0.419,1.284c-0.228,0.459-0.89,0.663-1.333,0.411C41.753,12.64,41.569,12.01,41.803,11.586z"/>
		<path fill-rule="evenodd" clip-rule="evenodd" fill="#575757" d="M44.864,7.64c0.438,0.211,0.655,0.828,0.45,1.273
			c-0.201,0.438-0.817,0.667-1.267,0.471c-0.467-0.205-0.696-0.854-0.464-1.314C43.805,7.632,44.42,7.425,44.864,7.64z"/>
		<path fill-rule="evenodd" clip-rule="evenodd" fill="#575757" d="M47.072,5.442c-0.246,0.426-0.876,0.604-1.3,0.369
			c-0.43-0.239-0.617-0.864-0.39-1.293c0.243-0.457,0.907-0.646,1.341-0.381C47.148,4.397,47.315,5.024,47.072,5.442z"/>
	</g>
	<g>
		<path fill-rule="evenodd" clip-rule="evenodd" fill="#575757" d="M55.178,26.909c0.492-0.005,0.963,0.441,0.98,0.93
			c0.018,0.489-0.425,0.971-0.913,0.996c-0.513,0.025-1.015-0.452-1.012-0.961C54.235,27.384,54.694,26.915,55.178,26.909z"/>
		<path fill-rule="evenodd" clip-rule="evenodd" fill="#575757" d="M60.119,27.642c0.03,0.484-0.4,0.977-0.89,1.018
			c-0.479,0.039-0.982-0.387-1.03-0.873c-0.051-0.508,0.402-1.025,0.919-1.049C59.606,26.715,60.088,27.149,60.119,27.642z"/>
		<path fill-rule="evenodd" clip-rule="evenodd" fill="#575757" d="M63.117,28.488c-0.491-0.007-0.956-0.468-0.959-0.952
			c-0.002-0.491,0.449-0.962,0.936-0.974c0.517-0.013,1.007,0.474,0.99,0.981C64.065,28.04,63.601,28.495,63.117,28.488z"/>
	</g>
	<g>
		<path fill-rule="evenodd" clip-rule="evenodd" fill="#575757" d="M46.48,46.388c0.163,0.465-0.111,1.054-0.568,1.226
			c-0.458,0.172-1.056-0.093-1.234-0.549c-0.188-0.477,0.104-1.104,0.588-1.265C45.731,45.646,46.321,45.931,46.48,46.388z"/>
		<path fill-rule="evenodd" clip-rule="evenodd" fill="#575757" d="M47.363,51.305c-0.45,0.183-1.054-0.067-1.248-0.518
			c-0.19-0.443,0.053-1.055,0.498-1.257c0.466-0.209,1.102,0.055,1.287,0.536C48.078,50.522,47.819,51.118,47.363,51.305z"/>
		<path fill-rule="evenodd" clip-rule="evenodd" fill="#575757" d="M47.517,54.415c-0.15-0.467,0.139-1.055,0.597-1.212
			c0.466-0.159,1.056,0.119,1.222,0.576c0.177,0.487-0.128,1.105-0.614,1.251C48.244,55.171,47.665,54.877,47.517,54.415z"/>
	</g>
	<g>
		<path fill-rule="evenodd" clip-rule="evenodd" fill="#575757" d="M26.375,13.427c-0.278-0.406-0.168-1.047,0.229-1.331
			c0.396-0.285,1.043-0.185,1.334,0.208c0.306,0.411,0.188,1.094-0.237,1.374C27.292,13.948,26.647,13.826,26.375,13.427z"/>
		<path fill-rule="evenodd" clip-rule="evenodd" fill="#575757" d="M24.241,8.911c0.387-0.295,1.035-0.21,1.34,0.174
			c0.299,0.379,0.225,1.032-0.154,1.343c-0.395,0.324-1.076,0.235-1.383-0.182C23.755,9.852,23.85,9.21,24.241,8.911z"/>
		<path fill-rule="evenodd" clip-rule="evenodd" fill="#575757" d="M23.282,5.946c0.268,0.413,0.141,1.056-0.26,1.326
			c-0.408,0.275-1.051,0.16-1.33-0.238c-0.297-0.423-0.164-1.1,0.268-1.366C22.384,5.407,23.02,5.54,23.282,5.946z"/>
	</g>
	<g>
		<path fill-rule="evenodd" clip-rule="evenodd" fill="#575757" d="M16.159,27.513c-0.466,0.16-1.054-0.115-1.224-0.572
			c-0.17-0.459,0.099-1.056,0.554-1.232c0.477-0.186,1.104,0.107,1.263,0.592C16.904,26.767,16.616,27.355,16.159,27.513z"/>
		<path fill-rule="evenodd" clip-rule="evenodd" fill="#575757" d="M11.239,28.377c-0.182-0.45,0.071-1.054,0.522-1.246
			c0.443-0.188,1.055,0.056,1.255,0.503c0.208,0.467-0.059,1.102-0.541,1.285C12.019,29.095,11.424,28.833,11.239,28.377z"/>
		<path fill-rule="evenodd" clip-rule="evenodd" fill="#575757" d="M8.128,28.519c0.468-0.149,1.055,0.143,1.209,0.602
			c0.158,0.465-0.123,1.055-0.58,1.219c-0.486,0.175-1.105-0.132-1.248-0.619C7.369,29.243,7.667,28.664,8.128,28.519z"/>
	</g>
	<path fill-rule="evenodd" clip-rule="evenodd" fill="#575757" d="M27.616,23.566c-1.86,1.444-3.652,2.837-5.444,4.228
		c-0.294,0.229-0.586,0.457-0.878,0.688c-0.778,0.615-1.174,1.421-1.176,2.411c-0.004,2.727-0.008,5.454,0.002,8.18
		c0.005,1.362-0.416,2.556-1.345,3.553c-3.251,3.492-6.507,6.981-9.761,10.47c-0.998,1.069-1.997,2.14-3.033,3.249
		c-0.492-0.449-0.959-0.874-1.459-1.331c1.29-1.386,2.553-2.743,3.816-4.098c2.975-3.187,5.949-6.371,8.924-9.557
		c0.589-0.631,0.881-1.373,0.879-2.243c-0.009-2.686,0.009-5.371-0.008-8.056c-0.011-1.782,0.697-3.189,2.099-4.268
		c0.57-0.438,1.136-0.884,1.761-1.373c-1.449-1.142-2.852-2.247-4.254-3.352c-0.21-0.166-0.417-0.338-0.635-0.494
		c-0.439-0.314-0.607-0.736-0.436-1.243c0.17-0.509,0.594-0.63,1.088-0.629c2.232,0.006,4.463,0.001,6.693,0.001
		c1.756,0,3.512-0.02,5.268,0.013c0.514,0.01,0.752-0.136,0.917-0.643c1.061-3.271,2.157-6.528,3.243-9.79
		c0.045-0.137,0.088-0.275,0.135-0.411c0.161-0.474,0.457-0.783,0.988-0.778s0.818,0.321,0.977,0.795
		c0.499,1.505,0.998,3.01,1.5,4.513c0.403,1.208,0.81,2.415,1.24,3.696c0.755-0.375,1.454-0.75,2.176-1.076
		c1.835-0.83,3.797,0.148,4.196,2.114c0.096,0.469,0.014,0.974,0.014,1.538c0.17,0.008,0.385,0.028,0.601,0.029
		c2.127,0.002,4.255,0.006,6.383-0.003c0.523-0.001,1.021,0.048,1.225,0.616c0.213,0.6-0.093,0.999-0.565,1.363
		c-1.779,1.376-3.54,2.777-5.307,4.17c-0.206,0.164-0.403,0.338-0.626,0.523c1.794,0.504,2.623,1.373,2.719,2.822
		c0.015,0.205-0.05,0.419-0.014,0.615c0.032,0.172,0.112,0.399,0.245,0.479c1.292,0.773,1.746,1.912,1.523,3.397
		c1.165,0.591,1.866,1.507,1.829,2.879c-0.029,1.104-0.51,2.009-1.49,2.47c-3.21,1.507-6.041,3.621-9.038,5.471
		c-0.717,0.442-1.608,0.61-2.432,0.867c-3.064,0.954-6.131,1.904-9.205,2.827c-0.878,0.265-1.522,0.762-2.017,1.524
		c-3.836,5.92-7.685,11.832-11.529,17.745c-0.133,0.205-0.272,0.406-0.428,0.636c-0.553-0.358-1.068-0.691-1.639-1.062
		c0.135-0.219,0.246-0.405,0.365-0.589c3.832-5.896,7.674-11.788,11.491-17.694c0.824-1.274,1.916-2.089,3.378-2.521
		c3.532-1.044,7.061-2.109,10.556-3.27c0.928-0.308,1.732-0.99,2.678-1.551c-1.49-1.056-2.867-2.033-4.245-3.008
		c-1.381-0.979-2.772-1.941-4.14-2.938c-0.323-0.235-0.542-0.221-0.858,0.004c-3.212,2.285-6.438,4.549-9.649,6.832
		c-0.456,0.322-0.905,0.539-1.411,0.183c-0.541-0.38-0.456-0.905-0.269-1.447c0.718-2.082,1.411-4.173,2.155-6.245
		c0.16-0.443,0.136-0.781-0.141-1.131c-0.256-0.322-0.502-0.654-0.771-0.965c-0.537-0.621-0.537-1.08,0.047-1.674
		c0.869-0.882,1.727-1.779,2.633-2.623c1.232-1.146,1.496-2.453,0.81-3.975C27.849,24.171,27.751,23.899,27.616,23.566z
		 M43.672,37.479c-1.303-0.682-1.953-1.74-1.768-3.271c0.017-0.132-0.167-0.343-0.311-0.433c-1.507-0.944-1.936-2.543-1.092-4.126
		c0.074-0.142,0.096-0.31,0.17-0.451c0.174-0.331,0.291-0.742,0.561-0.962c1.761-1.431,3.558-2.818,5.342-4.223
		c0.928-0.73,1.853-1.467,2.868-2.271c-0.216-0.034-0.291-0.058-0.366-0.058c-1.983-0.003-3.967-0.009-5.949,0.005
		c-0.214,0.002-0.443,0.085-0.642,0.181c-0.868,0.424-1.716,0.895-2.595,1.299c-1.227,0.563-2.659,0.238-3.491-0.748
		c-0.855-1.014-1.074-2.581-0.2-3.535c0.764-0.834,0.57-1.528,0.245-2.354c-0.09-0.229-0.156-0.468-0.235-0.702
		c-0.384-1.137-0.769-2.273-1.206-3.566c-0.129,0.348-0.203,0.531-0.266,0.717c-0.856,2.555-1.711,5.112-2.568,7.668
		c-0.291,0.868-0.514,1.027-1.438,1.033c-0.548,0.003-1.096,0-1.72,0c0.35,0.879,0.677,1.654,0.967,2.442
		c0.574,1.565,0.463,3.073-0.424,4.505c-0.076,0.123-0.174,0.239-0.216,0.373c-0.521,1.623-1.019,3.253-1.552,4.871
		c-0.559,1.693-1.152,3.375-1.78,5.21c0.312-0.207,0.494-0.321,0.671-0.446c2.512-1.772,5.027-3.537,7.527-5.324
		c0.552-0.395,1.023-0.399,1.573-0.004c1.639,1.183,3.299,2.338,4.949,3.504c0.954,0.673,1.908,1.344,2.945,2.075
		C43.672,38.367,43.672,37.963,43.672,37.479z M44.701,35.835c0.04-0.037,0.08-0.075,0.12-0.113c0.061-0.006,0.13,0.004,0.182-0.021
		c1.338-0.672,2.691-1.316,3.999-2.043c0.433-0.239,0.496-0.749,0.227-1.205c-0.263-0.441-0.694-0.656-1.158-0.438
		c-1.282,0.602-2.545,1.245-3.792,1.914c-0.398,0.213-0.56,0.67-0.353,1.073C44.092,35.327,44.437,35.562,44.701,35.835z
		 M38.475,21.509c0.262-0.044,0.353-0.039,0.422-0.074c1.301-0.656,2.612-1.293,3.887-1.994c0.409-0.226,0.511-0.687,0.299-1.145
		c-0.22-0.474-0.65-0.75-1.104-0.541c-1.357,0.625-2.693,1.305-3.988,2.05c-0.215,0.124-0.313,0.731-0.217,1.034
		C37.87,21.14,38.283,21.339,38.475,21.509z M42.913,32.284c0.046-0.035,0.09-0.071,0.136-0.106c0.157-0.042,0.327-0.058,0.469-0.13
		c1.176-0.586,2.354-1.168,3.515-1.783c0.486-0.257,0.649-0.807,0.454-1.27c-0.186-0.437-0.738-0.75-1.174-0.543
		c-1.297,0.615-2.577,1.271-3.841,1.955c-0.394,0.213-0.563,0.666-0.349,1.07C42.293,31.796,42.644,32.019,42.913,32.284z
		 M51.14,36.683c-0.005-0.944-0.703-1.418-1.383-1.097c-1.187,0.562-2.356,1.158-3.521,1.768c-0.57,0.298-0.742,0.853-0.482,1.347
		c0.267,0.504,0.802,0.688,1.376,0.408c1.162-0.566,2.324-1.14,3.454-1.767C50.863,37.187,51.028,36.82,51.14,36.683z
		 M23.618,24.165c1.037-0.811,2.029-1.586,3.094-2.418c-2.104,0-4.078,0-6.176,0C21.632,22.607,22.618,23.38,23.618,24.165z"/>
	<path fill-rule="evenodd" clip-rule="evenodd" fill="#FFCF0A" d="M43.672,37.479c0,0.483,0,0.888,0,1.409
		c-1.037-0.731-1.991-1.402-2.945-2.075c-1.65-1.166-3.311-2.321-4.949-3.504c-0.55-0.396-1.021-0.391-1.573,0.004
		c-2.5,1.787-5.016,3.552-7.527,5.324c-0.177,0.125-0.359,0.239-0.671,0.446c0.628-1.835,1.222-3.517,1.78-5.21
		c0.533-1.618,1.031-3.248,1.552-4.871c0.042-0.134,0.14-0.25,0.216-0.373c0.887-1.432,0.998-2.939,0.424-4.505
		c-0.29-0.788-0.617-1.563-0.967-2.442c0.624,0,1.172,0.003,1.72,0c0.925-0.006,1.147-0.165,1.438-1.033
		c0.857-2.556,1.712-5.113,2.568-7.668c0.063-0.186,0.137-0.369,0.266-0.717c0.438,1.293,0.822,2.43,1.206,3.566
		c0.079,0.234,0.146,0.473,0.235,0.702c0.325,0.826,0.519,1.521-0.245,2.354c-0.874,0.954-0.655,2.521,0.2,3.535
		c0.832,0.986,2.265,1.312,3.491,0.748c0.879-0.404,1.727-0.875,2.595-1.299c0.198-0.096,0.428-0.179,0.642-0.181
		c1.982-0.014,3.966-0.008,5.949-0.005c0.075,0,0.15,0.023,0.366,0.058c-1.016,0.804-1.94,1.54-2.868,2.271
		c-1.784,1.404-3.581,2.792-5.342,4.223c-0.27,0.22-0.387,0.631-0.561,0.962c-0.074,0.142-0.096,0.31-0.17,0.451
		c-0.844,1.583-0.415,3.182,1.092,4.126c0.144,0.09,0.327,0.301,0.311,0.433C41.719,35.739,42.369,36.798,43.672,37.479z"/>
	<path fill-rule="evenodd" clip-rule="evenodd" fill="#FFCF0A" d="M23.618,24.165c-1-0.785-1.986-1.558-3.082-2.418
		c2.098,0,4.071,0,6.176,0C25.647,22.579,24.655,23.354,23.618,24.165z"/>
</g>
</svg>
