<?xml version="1.0" encoding="utf-8"?>
<!-- Generator: Adobe Illustrator 16.0.0, SVG Export Plug-In . SVG Version: 6.00 Build 0)  -->
<!DOCTYPE svg PUBLIC "-//W3C//DTD SVG 1.1//EN" "http://www.w3.org/Graphics/SVG/1.1/DTD/svg11.dtd">
<svg version="1.1" id="Layer_1" xmlns="http://www.w3.org/2000/svg" xmlns:xlink="http://www.w3.org/1999/xlink" x="0px" y="0px"
	 width="72px" height="72px" viewBox="0 0 72 72" enable-background="new 0 0 72 72" xml:space="preserve">
<path fill="#F6F4F4" d="M55.005,53.826c0,7.396-5.996,13.392-13.393,13.392H25.468c-7.397,0-13.392-5.996-13.392-13.392V37.681
	c0-7.396,5.995-13.392,13.392-13.392h16.145c7.396,0,13.393,5.996,13.393,13.392V53.826z"/>
<g>
	<path fill="#FFCF07" d="M42.4,24.507c-0.097-0.009-0.195-0.01-0.293-0.01c-2.31,0-4.618-0.007-6.928,0.001
		c-2.422,0.009-4.625,0.707-6.374,2.407c-1.816,1.766-3.905,2.583-6.427,2.445c-1.882-0.103-3.759-0.019-5.546,0.708
		c-0.023,0.009-0.068-0.034-0.128-0.066c0.058-0.176,0.111-0.357,0.177-0.533c1.796-4.792,3.631-9.571,5.362-14.386
		c0.401-1.114,1.093-1.794,2.067-2.289c0.454-0.23,0.934-0.495,1.424-0.548c1.394-0.151,2.8-0.282,4.201-0.276
		c2.854,0.012,5.299-0.879,7.355-2.896c1.351-1.324,3.025-1.969,4.93-1.97c3.207-0.001,6.415-0.001,9.621,0.001
		c0.222,0,0.441,0.021,0.719,0.035c-0.069,0.201-0.104,0.32-0.15,0.435c-2.272,5.647-4.545,11.294-6.817,16.941H42.4z"/>
	<path fill-rule="evenodd" clip-rule="evenodd" fill="#575757" d="M31.223,39.746c-0.004,2.748-2.224,4.976-4.951,4.972
		c-2.728-0.005-4.942-2.239-4.939-4.986c0.002-2.744,2.22-4.97,4.953-4.97C29.011,34.762,31.228,36.999,31.223,39.746z
		 M26.29,36.716c-1.694-0.001-3.07,1.371-3.05,3.045c0.019,1.662,1.37,3,3.031,3.001c1.686,0.002,3.074-1.38,3.057-3.045
		C29.312,38.067,27.945,36.719,26.29,36.716z"/>
	<path fill-rule="evenodd" clip-rule="evenodd" fill="#575757" d="M18.218,45.746c-0.001,2.745-2.224,4.979-4.949,4.974
		c-2.73-0.005-4.946-2.238-4.942-4.983c0.004-2.749,2.214-4.969,4.951-4.973C16.002,40.76,18.219,42.995,18.218,45.746z
		 M13.279,48.764c1.686-0.004,3.066-1.392,3.042-3.058c-0.024-1.65-1.391-2.988-3.05-2.987c-1.664,0.001-3.013,1.331-3.037,2.995
		C10.208,47.383,11.591,48.767,13.279,48.764z"/>
	<path fill-rule="evenodd" clip-rule="evenodd" fill="#575757" d="M53.988,16.259c0.497,0.016,0.953,0.487,0.948,0.98
		c-0.006,0.494-0.473,0.96-0.966,0.963c-0.517,0.003-1.002-0.499-0.978-1.013C53.019,16.695,53.501,16.243,53.988,16.259z"/>
	<path fill-rule="evenodd" clip-rule="evenodd" fill="#575757" d="M58.937,17.215c0.009,0.49-0.445,0.967-0.94,0.986
		c-0.486,0.019-0.974-0.433-1-0.925c-0.029-0.515,0.451-1.017,0.971-1.017C58.462,16.258,58.927,16.718,58.937,17.215z"/>
	<path fill-rule="evenodd" clip-rule="evenodd" fill="#575757" d="M61.921,18.202c-0.494-0.029-0.942-0.515-0.923-1.002
		c0.019-0.496,0.494-0.95,0.985-0.94c0.521,0.01,0.995,0.521,0.954,1.032C62.896,17.792,62.408,18.229,61.921,18.202z"/>
	<path fill-rule="evenodd" clip-rule="evenodd" fill="#575757" d="M62.217,65.91c-0.239-4.18-0.529-8.356-0.72-12.537
		c-0.118-2.622-1.171-4.724-3.142-6.406c-0.281-0.24-0.549-0.497-0.84-0.761c3.115-1.342,4.405-3.158,4.04-5.631
		c-0.349-2.355-2.19-4.092-4.6-4.295c-1.069-0.089-2.072,0.188-2.974,0.763c-1.396,0.892-2.14,2.208-2.338,3.947
		c-0.273-0.232-0.462-0.387-0.645-0.549c-2.322-2.06-4.634-4.133-6.976-6.172c-0.383-0.334-0.424-0.582-0.237-1.041
		C47.589,23.823,51.371,14.412,55.155,5c0.078-0.191,0.158-0.388,0.191-0.59c0.086-0.518-0.11-0.901-0.616-1.085
		c-0.516-0.187-0.899,0.021-1.149,0.469c-0.151,0.271-0.277,0.564-0.356,0.863c-0.13,0.492-0.419,0.606-0.909,0.603
		c-3.294-0.024-6.587-0.007-9.88-0.014c-2.621-0.006-4.885,0.857-6.767,2.706c-1.084,1.065-2.38,1.785-3.902,1.924
		c-1.323,0.121-2.66,0.086-3.991,0.119c-2.325,0.056-4.343,0.875-6.042,2.458c-0.219,0.204-0.401,0.487-0.507,0.767
		c-2.308,6.128-4.603,12.26-6.902,18.391c-0.195,0.521-0.28,1.031,0.248,1.404c0.559,0.395,1.004,0.122,1.435-0.284
		c0.866-0.812,1.866-1.474,3.039-1.629c1.436-0.19,2.897-0.231,4.348-0.25c2.509-0.031,4.699-0.829,6.502-2.582
		c1.549-1.505,3.384-2.203,5.533-2.178c2.251,0.024,4.502,0.009,6.752,0.001c0.088,0,0.17-0.007,0.247-0.019h2.154
		c-1.815,4.509-3.631,9.018-5.449,13.526c-0.097,0.24-0.263,0.477-0.455,0.65c-2.108,1.894-4.221,3.782-6.356,5.646
		c-0.237,0.207-0.618,0.346-0.935,0.35c-2.021,0.032-4.043-0.002-6.064,0.022c-2.5,0.029-4.483,1.687-4.931,4.129
		c-0.107,0.584-0.071,1.193-0.104,1.868c-0.257,0-0.479,0-0.702,0c-1.438,0-2.877-0.023-4.314,0.006
		c-3.311,0.069-5.535,3.124-4.569,6.289c0.333,1.092,0.751,2.159,1.132,3.236c0.549,1.547,1.099,3.094,1.65,4.64
		c0.169,0.476,0.506,0.864,1.003,0.751c0.338-0.077,0.681-0.428,0.874-0.745c0.112-0.185-0.027-0.56-0.12-0.825
		c-0.864-2.45-1.751-4.892-2.613-7.342c-0.763-2.17,0.563-4.051,2.844-4.052c5.668-0.002,11.337-0.001,17.006-0.001
		c0.204,0,0.408,0,0.716,0c-0.338,0.854-0.628,1.628-0.958,2.384c-0.056,0.13-0.275,0.251-0.431,0.267
		c-2.398,0.268-4.8,0.516-7.2,0.771c-1.945,0.207-3.89,0.412-5.834,0.628c-0.642,0.071-0.999,0.506-0.937,1.096
		c0.057,0.534,0.523,0.903,1.116,0.84c2.855-0.305,5.709-0.622,8.564-0.932c1.251-0.135,2.504-0.259,3.821-0.395
		c-0.104,0.297-0.171,0.512-0.254,0.723c-0.771,1.953-1.544,3.905-2.313,5.858c-0.083,0.213-0.169,0.431-0.199,0.653
		c-0.071,0.526,0.164,0.894,0.67,1.052c0.489,0.152,0.853-0.055,1.1-0.477c0.094-0.16,0.154-0.34,0.222-0.515
		c1.573-3.98,3.143-7.965,4.727-11.941c0.1-0.252,0.296-0.483,0.494-0.677c0.548-0.533,1.187-0.985,1.669-1.57
		c1.073-1.301,2.071-2.663,3.102-3.999c1.104-1.432,2.208-2.862,3.364-4.36c0.152,0.182,0.267,0.33,0.393,0.467
		c1.615,1.741,3.222,3.492,4.858,5.215c0.358,0.378,0.501,0.761,0.5,1.275c-0.016,5.022-0.01,10.046-0.007,15.068
		c0,0.27,0.001,0.545,0.05,0.809c0.094,0.505,0.46,0.758,0.936,0.748c0.479-0.011,0.823-0.292,0.912-0.789
		c0.04-0.223,0.02-0.457,0.02-0.686c0-4.336,0-8.671,0.001-13.006c0-0.207,0.018-0.415,0.034-0.76
		c0.628,0.672,1.136,1.222,1.651,1.763c0.546,0.572,1.063,0.638,1.52,0.206c0.431-0.405,0.39-0.987-0.12-1.539
		c-0.849-0.918-1.702-1.832-2.554-2.749c-3.345-3.602-6.691-7.202-10.028-10.813c-0.146-0.158-0.323-0.447-0.271-0.602
		c0.275-0.816,0.62-1.609,0.967-2.477c0.248,0.204,0.425,0.342,0.593,0.49c2.37,2.102,4.738,4.205,7.106,6.309
		c2.29,2.033,4.582,4.066,6.869,6.104c1.264,1.126,2.059,2.512,2.172,4.219c0.215,3.241,0.395,6.485,0.591,9.729
		c0.075,1.226,0.162,2.451,0.234,3.679c0.032,0.517,0.333,0.879,0.795,0.882c0.331,0.004,0.722-0.241,0.978-0.487
		C62.264,66.543,62.231,66.174,62.217,65.91z M42.236,24.177c-0.095-0.009-0.19-0.009-0.286-0.009c-2.251,0-4.502-0.007-6.752,0.001
		c-2.36,0.009-4.508,0.689-6.212,2.345c-1.771,1.722-3.807,2.518-6.265,2.384c-1.835-0.1-3.665-0.018-5.406,0.691
		c-0.022,0.009-0.066-0.033-0.125-0.064c0.057-0.172,0.108-0.348,0.173-0.521c1.75-4.67,3.54-9.328,5.227-14.022
		c0.39-1.085,1.065-1.749,2.015-2.23c0.442-0.224,0.911-0.482,1.388-0.535c1.359-0.147,2.729-0.275,4.095-0.269
		c2.782,0.012,5.166-0.857,7.169-2.824c1.316-1.29,2.949-1.919,4.805-1.92c3.127-0.001,6.253-0.001,9.379,0
		c0.215,0,0.431,0.021,0.7,0.035c-0.067,0.196-0.101,0.312-0.146,0.424c-2.215,5.504-4.429,11.009-6.646,16.513H42.236z
		 M42.062,41.689c0.354,0.525,0.155,0.983-0.185,1.426c-1.593,2.06-3.182,4.122-4.772,6.184c-0.484,0.627-0.956,1.264-1.459,1.874
		c-0.555,0.675-1.276,1.083-2.162,1.087c-3.605,0.013-7.21,0.006-10.816,0.004c-0.12,0-0.24-0.025-0.35-0.037
		c-0.48-2.226,0.935-4.002,3.161-4.006c2.146-0.002,4.294,0.024,6.44-0.021c0.415-0.009,0.91-0.19,1.222-0.461
		c2.378-2.061,4.717-4.166,7.075-6.249C40.917,40.872,41.565,40.953,42.062,41.689z M56.62,44.262
		c-1.653-0.001-3.024-1.354-3.036-2.996c-0.012-1.675,1.36-3.047,3.047-3.048c1.679,0,3.003,1.315,3.018,2.995
		C59.663,42.916,58.323,44.264,56.62,44.262z"/>
</g>
</svg>
